PathFileType	4	(X/Y/Z)	C:/Users/beibeiliu/ov580/test_trc/User1\sequence.2_training_dense_left.trc
DataRate	CameraRate	NumFrames	NumMarkers	Units	OrigDataRate	OrigDataStartFrame	OrigNumFrames
120	120	12	19	mm	120	31	244
Frame#	Time	ThumbCMC			ThumbMCP			ThumbIP			ThumbTip			IndexMCP			IndexPIP			IndexTip			MiddleMCP			MiddlePIP			MiddleTip			RingMCP			RingPIP			RingTip			PinkyMCP			PinkyPIP			PinkyTip			BackHand1			BackHand2			BackHand3	
		X0	Y0	Z0	X1	Y1	Z1	X2	Y2	Z2	X3	Y3	Z3	X4	Y4	Z4	X5	Y5	Z5	X6	Y6	Z6	X7	Y7	Z7	X8	Y8	Z8	X9	Y9	Z9	X10	Y10	Z10	X11	Y11	Z11	X12	Y12	Z12	X13	Y13	Z13	X14	Y14	Z14	X15	Y15	Z15	X16	Y16	Z16	X17	Y17	Z17	X18	Y18	Z18	
30	0.25	-177.849	83.4602	-0.0188023	-151.298	71.6752	-22.3971	-142.616	64.2057	-44.1902	-132.656	54.894	-68.634	-182.707	102.05	-83.6819	-179.779	89.9375	-107.806	-166.72	62.8089	-127.288	-212.548	91.9481	-89.4617	-201.725	79.7122	-121.323	-187.805	54.9487	-137.647	-227.093	75.8872	-90.5638	-216.818	59.0465	-116.696	-197.87	39.2269	-126.114	-242.587	54.0125	-74.4072	-235.301	42.4924	-93.7233	-212.623	27.5246	-112.265	-243.229	84.6991	-30.3182	-245.841	81.7651	5.71636	-214.82	101.295	-9.4444	
31	0.258333	-178.222	88.0698	1.95053	-150.469	78.1104	-21.8858	-142.612	73.3382	-44.8326	-128.325	64.9087	-68.2772	-190.754	100.011	-85.0172	-180.489	90.4	-108.755	-165.754	66.4121	-125.112	-213.366	89.3109	-93.7734	-200.835	76.3449	-120.805	-181.687	53.3744	-137.786	-230.216	67.9494	-87.0563	-216.637	56.9095	-112.253	-195.626	35.0639	-123.154	-242.691	46.534	-69.6211	-231.7	34.3329	-93.9648	-211.144	26.1039	-107.353	-243.375	79.4298	-27.9783	-243.91	77.2837	7.77072	-213.95	101.253	-10.1782	
32	0.266667	-180.384	92.5092	-0.846127	-154.788	84.6812	-22.6065	-141.045	81.2521	-47.2302	-133.137	72.1293	-69.9978	-195.597	101.065	-81.7214	-186.105	86.8932	-110.476	-169.395	64.0728	-124.335	-219.16	82.8598	-90.7496	-206.237	72.2674	-120.314	-182.2	51.2917	-135.061	-229.85	64.2102	-86.4468	-217.452	50.1448	-111.73	-193.847	31.4935	-119.134	-239.781	37.6993	-69.3371	-224.965	31.0451	-90.9748	-200.049	21.1072	-104.113	-245.117	72.5091	-28.4409	-244.115	72.3958	8.2537	-222.339	94.7833	-10.2954	
33	0.275	-181.412	97.8245	-0.737142	-156.11	90.9754	-25.6258	-144.102	86.9968	-53.4808	-134.963	78.2096	-70.6253	-202.708	94.3206	-84.1364	-191.656	81.8021	-111.404	-169.755	61.5765	-122.923	-220.108	78.9268	-93.6294	-207.574	67.4108	-119.887	-183.267	48.9282	-133.206	-229.292	57.6476	-87.7643	-215.404	44.233	-110.445	-188.226	26.4224	-116.189	-235.868	30.4815	-71.1892	-219.475	24.2909	-88.5736	-196.799	15.5094	-101.678	-243.321	69.6615	-27.9798	-245.388	69.2873	4.50612	-226.354	94.8571	-12.397	
34	0.283333	-186.999	98.9946	-2.1697	-158.593	96.4417	-25.4343	-148.828	92.5428	-50.7615	-139.289	83.9112	-73.6428	-206.391	92.5918	-84.6115	-191.852	76.4878	-113.493	-172.837	60.1298	-121.701	-222.996	73.2876	-94.9751	-206.852	59.935	-121.182	-176.903	43.0859	-131.64	-231.079	48.933	-85.5235	-210.357	39.6966	-111.621	-182.371	23.8645	-113.532	-232.256	24.9724	-63.7784	-213.518	17.6717	-87.5404	-186.591	16.4735	-97.1445	-243.138	62.991	-27.0507	-244.957	62.8516	9.2883	-229.799	89.8529	-13.1381	
35	0.291667	-189.375	101.567	-2.06177	-165.068	100.822	-30.4595	-155.08	97.2453	-52.961	-143.053	89.0572	-75.3997	-210.033	89.4456	-87.5501	-191.898	77.3369	-114.983	-170.559	61.38	-120.802	-224.965	62.5584	-94.8052	-204.84	55.8152	-120.425	-174.234	43.3328	-130.429	-228.009	40.6888	-84.6869	-205.629	32.1877	-110.432	-177.893	24.3998	-110.691	-224.919	17.5156	-67.2796	-205.14	12.3997	-85.7503	-180.532	12.0777	-93.0371	-243.605	53.9125	-28.2935	-245.177	56.1996	7.92192	-230.269	85.2369	-11.9149	
36	0.3	-195.308	103.516	-4.30759	-171.653	103.321	-31.8426	-160.289	101.506	-54.4926	-143.934	98.0385	-78.8794	-213.88	80.2161	-87.6582	-199.172	70.654	-111.652	-170.446	58.1772	-119.542	-224.969	57.514	-91.8052	-206.629	51.8969	-118.546	-173.993	38.3019	-127.09	-224.06	34.2569	-81.187	-203.514	27.6922	-105.755	-167.42	24.7198	-107.186	-215.921	14.425	-64.9756	-197.648	11.2603	-81.8372	-169.226	13.0718	-90.4393	-240.286	44.6036	-23.6418	-243.06	50.9519	7.68757	-233.237	80.2128	-12.8444	
37	0.308333	-201.554	101.23	-7.51882	-177.651	105.429	-34.6595	-165.367	104.422	-55.3708	-149.341	102.006	-79.1765	-215.382	73.9324	-91.3651	-197.856	66.6094	-114.045	-168.195	61.7249	-120.647	-223.757	48.5244	-88.8256	-204.105	42.9976	-117.18	-170.782	36.2746	-124.922	-218.802	26.0363	-79.5217	-193.116	24.4357	-105.474	-159.677	21.5372	-102.568	-210.233	8.16978	-57.3021	-188.975	5.0159	-76.896	-166.013	16.0423	-88.546	-236.585	43.0667	-21.2514	-240.866	42.3261	10.6535	-235.9	78.5447	-15.2246	
38	0.316667	-207.488	99.1321	-7.52744	-181.83	110.201	-33.4168	-170.469	109.34	-58.8858	-156.27	102.097	-77.2918	-218.645	71.2683	-87.1194	-199.001	66.263	-114.553	-168.352	59.2191	-119.662	-222.793	47.7188	-89.5043	-201.747	39.4176	-117.081	-165.15	36.9386	-125.643	-212.849	25.2297	-80.5878	-188.254	21.4987	-102.746	-157.172	25.6859	-100.814	-199.339	7.7021	-58.0248	-178.803	4.66034	-73.4744	-151.146	18.2271	-84.6589	-232.123	34.5199	-20.453	-237.322	43.0662	10.1797	-238.61	73.9777	-14.1601	
39	0.325	-211.378	97.1542	-7.90205	-188.625	106.463	-32.0066	-176.247	108.699	-61.9823	-160.752	102.972	-85.0934	-218.144	64.4166	-90.9585	-202.387	59.9447	-112.228	-167.956	60.4908	-120.118	-220.12	37.1114	-90.6395	-198.761	35.0455	-117.05	-168.16	35.1865	-125.354	-208.453	22.7113	-78.5137	-181.463	20.2631	-100.241	-149.412	27.2918	-97.7301	-190.675	5.67709	-57.2202	-169.84	8.16935	-71.535	-145.946	24.5793	-79.5672	-231.424	33.0133	-20.5386	-233.421	36.6032	11.9234	-238.303	70.1304	-11.9779	
40	0.333333	-214.726	101.367	-10.3816	-194.143	108.386	-36.2575	-183.387	111.018	-62.7238	-167.354	108.423	-84.9421	-219.688	58.9516	-89.8781	-201.113	57.3607	-112.442	-170.428	57.8162	-118.689	-218.242	33.9428	-88.4321	-199.546	31.9389	-115.042	-167.252	40.2	-127.918	-202.867	17.5137	-76.4319	-178.51	20.0841	-99.0873	-147.128	34.5806	-96.9434	-187.812	7.78055	-53.834	-164.42	9.76372	-68.3776	-144.868	29.596	-80.0657	-226.17	25.1663	-21.087	-230.829	34.6721	13.7394	-239.232	62.6521	-11.4267	
41	0.341667	-219.422	99.9124	-10.0249	-198.277	108.507	-33.4054	-187.774	112.368	-65.7891	-174.035	107.229	-85.9006	-221.303	58.6921	-87.0995	-204.314	54.2143	-111.177	-172.805	57.4781	-118.832	-215.815	30.0193	-88.1918	-197.656	30.0123	-115.363	-164.357	35.4716	-126.918	-198.675	15.1998	-74.4573	-175.567	22.6894	-98.141	-147.604	38.8945	-97.0821	-178.773	6.36368	-52.7441	-158.717	15.226	-68.2875	-137.367	35.9986	-77.6487	-222.499	25.4673	-18.891	-227.479	35.3127	13.7709	-238.466	61.9161	-10.0938	
